<svg width="77" height="77" viewBox="0 0 77 77" fill="none" xmlns="http://www.w3.org/2000/svg">
<rect width="77" height="77" rx="38.5" fill="#181818"/>
<mask id="mask0_9_653" style="mask-type:luminance" maskUnits="userSpaceOnUse" x="23" y="23" width="31" height="31">
<path d="M53.0236 35.7336H38.8459V41.6122H47.0068C46.246 45.3468 43.0647 47.4907 38.8459 47.4907C33.8665 47.4907 29.8552 43.4795 29.8552 38.5C29.8552 33.5205 33.8665 29.5093 38.8459 29.5093C40.9899 29.5093 42.9264 30.27 44.4479 31.5149L48.8741 27.0887C46.1769 24.7373 42.7189 23.2849 38.8459 23.2849C30.4085 23.2849 23.6309 30.0625 23.6309 38.5C23.6309 46.9375 30.4085 53.7151 38.8459 53.7151C46.4535 53.7151 53.3694 48.1823 53.3694 38.5C53.3694 37.6009 53.2311 36.6327 53.0236 35.7336Z" fill="white"/>
</mask>
<g mask="url(#mask0_9_653)">
<path d="M22.248 47.4912V29.5098L34.0052 38.5005L22.248 47.4912Z" fill="#FBBC05"/>
</g>
<mask id="mask1_9_653" style="mask-type:luminance" maskUnits="userSpaceOnUse" x="23" y="23" width="31" height="31">
<path d="M53.0236 35.7336H38.8459V41.6122H47.0068C46.246 45.3468 43.0647 47.4907 38.8459 47.4907C33.8665 47.4907 29.8552 43.4795 29.8552 38.5C29.8552 33.5205 33.8665 29.5093 38.8459 29.5093C40.9899 29.5093 42.9264 30.27 44.4479 31.5149L48.8741 27.0887C46.1769 24.7373 42.7189 23.2849 38.8459 23.2849C30.4085 23.2849 23.6309 30.0625 23.6309 38.5C23.6309 46.9375 30.4085 53.7151 38.8459 53.7151C46.4535 53.7151 53.3694 48.1823 53.3694 38.5C53.3694 37.6009 53.2311 36.6327 53.0236 35.7336Z" fill="white"/>
</mask>
<g mask="url(#mask1_9_653)">
<path d="M22.248 29.5094L34.0052 38.5001L38.8463 34.2814L55.4446 31.5842V21.9019H22.248V29.5094Z" fill="#EA4335"/>
</g>
<mask id="mask2_9_653" style="mask-type:luminance" maskUnits="userSpaceOnUse" x="23" y="23" width="31" height="31">
<path d="M53.0236 35.7336H38.8459V41.6122H47.0068C46.246 45.3468 43.0647 47.4907 38.8459 47.4907C33.8665 47.4907 29.8552 43.4795 29.8552 38.5C29.8552 33.5205 33.8665 29.5093 38.8459 29.5093C40.9899 29.5093 42.9264 30.27 44.4479 31.5149L48.8741 27.0887C46.1769 24.7373 42.7189 23.2849 38.8459 23.2849C30.4085 23.2849 23.6309 30.0625 23.6309 38.5C23.6309 46.9375 30.4085 53.7151 38.8459 53.7151C46.4535 53.7151 53.3694 48.1823 53.3694 38.5C53.3694 37.6009 53.2311 36.6327 53.0236 35.7336Z" fill="white"/>
</mask>
<g mask="url(#mask2_9_653)">
<path d="M22.248 47.4909L42.9959 31.5842L48.4595 32.2758L55.4446 21.9019V55.0984H22.248V47.4909Z" fill="#34A853"/>
</g>
<mask id="mask3_9_653" style="mask-type:luminance" maskUnits="userSpaceOnUse" x="23" y="23" width="31" height="31">
<path d="M53.0236 35.7336H38.8459V41.6122H47.0068C46.246 45.3468 43.0647 47.4907 38.8459 47.4907C33.8665 47.4907 29.8552 43.4795 29.8552 38.5C29.8552 33.5205 33.8665 29.5093 38.8459 29.5093C40.9899 29.5093 42.9264 30.27 44.4479 31.5149L48.8741 27.0887C46.1769 24.7373 42.7189 23.2849 38.8459 23.2849C30.4085 23.2849 23.6309 30.0625 23.6309 38.5C23.6309 46.9375 30.4085 53.7151 38.8459 53.7151C46.4535 53.7151 53.3694 48.1823 53.3694 38.5C53.3694 37.6009 53.2311 36.6327 53.0236 35.7336Z" fill="white"/>
</mask>
<g mask="url(#mask3_9_653)">
<path d="M55.4431 55.0988L34.0037 38.5005L31.2373 36.4257L55.4431 29.5098V55.0988Z" fill="#4285F4"/>
</g>
</svg>
