<svg width="390" height="46" viewBox="0 0 390 46" fill="none" xmlns="http://www.w3.org/2000/svg">
<rect x="1" y="1" width="388" height="44" rx="15" fill="url(#paint0_linear_234_6659)"/>
<rect x="1" y="1" width="388" height="44" rx="15" stroke="#181818" stroke-width="2"/>
<path d="M25.74 19.66C29.1 19.66 31.24 20.6 31.24 24.1C31.24 27.58 29.1 28.5 25.74 28.5H21.46V14.4H29.76V15.8H23.1V19.66H25.74ZM25.74 27.1C28.22 27.1 29.6 26.66 29.6 24.1C29.6 21.52 28.22 21.06 25.74 21.06H23.1V27.1H25.74ZM37.66 21.42C40.02 21.42 41.92 22.18 41.92 24.96C41.92 27.74 40.02 28.5 37.66 28.5H33.96V18.56H35.6V21.42H37.66ZM43.32 28.5V18.56H44.94V28.5H43.32ZM35.6 27.1H37.46C39.14 27.1 40.28 26.9 40.28 24.96C40.28 23.02 39.14 22.82 37.46 22.82H35.6V27.1ZM47.4858 23.52C47.4858 20.66 49.3458 18.36 52.5658 18.36C54.4858 18.36 56.9458 19.44 57.2058 22.32H55.5458C55.2658 20.42 54.0058 19.76 52.5658 19.76C50.2058 19.76 49.1258 21.48 49.1258 23.52C49.1258 25.58 50.2058 27.3 52.5658 27.3C54.0058 27.3 55.2658 26.64 55.5458 24.74H57.2058C56.9458 27.62 54.4858 28.7 52.5658 28.7C49.3458 28.7 47.4858 26.4 47.4858 23.52ZM67.2656 18.56V19.96H63.5256V28.5H61.8856V19.96H58.1256V18.56H67.2656ZM69.1944 18.56H70.8344V20.02L70.5744 21.16H71.0344C71.4544 19.6 72.7744 18.36 75.0544 18.36C77.9344 18.36 79.7944 20.58 79.7944 23.54C79.7944 26.48 77.9344 28.7 75.0544 28.7C72.7744 28.7 71.4544 27.46 71.0344 25.92H70.5744L70.8344 27.04V32.14H69.1944V18.56ZM70.8344 23.54C70.8344 26.18 72.5344 27.3 74.5744 27.3C76.6344 27.3 78.1544 26.14 78.1544 23.54C78.1544 20.92 76.6344 19.76 74.5744 19.76C72.5344 19.76 70.8344 20.88 70.8344 23.54ZM86.0194 21.42C88.3794 21.42 90.2794 22.18 90.2794 24.96C90.2794 27.74 88.3794 28.5 86.0194 28.5H82.3194V18.56H83.9594V21.42H86.0194ZM91.6794 28.5V18.56H93.2994V28.5H91.6794ZM83.9594 27.1H85.8194C87.4994 27.1 88.6394 26.9 88.6394 24.96C88.6394 23.02 87.4994 22.82 85.8194 22.82H83.9594V27.1ZM104.165 13.8C104.165 15.84 102.985 17.24 101.045 17.24C99.0852 17.24 97.9052 15.84 97.9052 13.8H99.2452C99.2452 15.26 99.7652 15.94 101.045 15.94C102.325 15.94 102.825 15.26 102.825 13.8H104.165ZM105.785 28.5H104.165V19.98L104.425 19.04H103.965L99.5452 28.5H96.2452V18.56H97.8852V27.06L97.6252 28.04H98.0852L102.505 18.56H105.785V28.5ZM125.476 27.1V31.14H123.836V28.5H116.196V31.14H114.556V27.1H115.876C116.956 24.92 117.356 22.48 117.356 18.56H124.156V27.1H125.476ZM117.516 27.1H122.516V19.96H118.976C118.876 23.08 118.456 25.2 117.516 27.1ZM126.998 23.52C126.998 20.64 129.078 18.36 132.258 18.36C135.418 18.36 137.478 20.64 137.478 23.52C137.478 26.42 135.418 28.7 132.258 28.7C129.078 28.7 126.998 26.42 126.998 23.52ZM128.638 23.52C128.638 25.6 129.898 27.3 132.258 27.3C134.598 27.3 135.858 25.6 135.858 23.52C135.858 21.46 134.598 19.76 132.258 19.76C129.898 19.76 128.638 21.46 128.638 23.52ZM139.361 23.52C139.361 20.66 141.221 18.36 144.441 18.36C146.361 18.36 148.821 19.44 149.081 22.32H147.421C147.141 20.42 145.881 19.76 144.441 19.76C142.081 19.76 141.001 21.48 141.001 23.52C141.001 25.58 142.081 27.3 144.441 27.3C145.881 27.3 147.141 26.64 147.421 24.74H149.081C148.821 27.62 146.361 28.7 144.441 28.7C141.221 28.7 139.361 26.4 139.361 23.52ZM159.141 18.56V19.96H155.401V28.5H153.761V19.96H150.001V18.56H159.141ZM169.38 18.56H171.16L166.84 28.4V31.18C166.84 31.94 166.4 32.4 165.46 32.36L161.62 32.18V30.78L165.2 30.96V28.4L160.86 18.56H162.66L165.78 26.3V27.06H166.26V26.3L169.38 18.56ZM181.496 18.56V28.5H179.856V19.96H174.916V28.5H173.276V18.56H181.496ZM199.35 28.5H197.43L193.89 24.18C193.73 24.22 193.57 24.24 193.39 24.24H192.69V28.5H191.05V18.56H192.69V22.78H193.51L196.09 19.3C196.45 18.8 196.89 18.56 197.55 18.56H199.11V19.96H197.49L195.05 23.24L199.35 28.5ZM207.92 24.62H209.52C209.52 26.72 210.24 27.4 212.18 27.4C213.92 27.4 214.48 26.76 214.48 25.54C214.48 24.4 213.92 23.9 212.7 23.9H211.36V22.58H212.7C213.92 22.58 214.28 22.06 214.28 21.14C214.28 20.26 213.86 19.66 212.1 19.66C210.16 19.66 209.72 20.32 209.72 21.66H208.12C208.12 19.58 209.42 18.36 212.1 18.36C214.6 18.36 215.88 19.5 215.88 20.96C215.88 22.2 215.12 22.84 213.88 23V23.46C215.12 23.64 216.08 24.3 216.08 25.72C216.08 27.54 214.68 28.7 212.18 28.7C209.5 28.7 207.92 27.46 207.92 24.62ZM218.404 25.74C218.404 24.16 219.344 23.08 221.664 22.84L225.624 22.46C225.524 20.64 224.544 19.74 222.824 19.74C221.384 19.74 220.044 20.38 220.044 22.26H218.444C218.444 20.2 220.004 18.36 222.824 18.36C225.604 18.36 227.264 20.2 227.264 22.86V27.1H228.724V28.5H226.964C226.204 28.5 225.784 28.08 225.784 27.34V26.8L226.044 25.76H225.564C225.184 27.28 224.124 28.7 221.724 28.7C218.844 28.7 218.404 26.78 218.404 25.74ZM220.044 25.54C220.044 26.68 220.764 27.3 221.924 27.3C224.184 27.3 225.624 25.74 225.624 23.68L221.944 24.06C220.684 24.18 220.044 24.56 220.044 25.54ZM241.16 27.1V31.14H239.52V28.5H231.88V31.14H230.24V27.1H231.56C232.64 24.92 233.04 22.48 233.04 18.56H239.84V27.1H241.16ZM233.2 27.1H238.2V19.96H234.66C234.56 23.08 234.14 25.2 233.2 27.1ZM242.876 25.74C242.876 24.16 243.816 23.08 246.136 22.84L250.096 22.46C249.996 20.64 249.016 19.74 247.296 19.74C245.856 19.74 244.516 20.38 244.516 22.26H242.916C242.916 20.2 244.476 18.36 247.296 18.36C250.076 18.36 251.736 20.2 251.736 22.86V27.1H253.196V28.5H251.436C250.676 28.5 250.256 28.08 250.256 27.34V26.8L250.516 25.76H250.036C249.656 27.28 248.596 28.7 246.196 28.7C243.316 28.7 242.876 26.78 242.876 25.74ZM244.516 25.54C244.516 26.68 245.236 27.3 246.396 27.3C248.656 27.3 250.096 25.74 250.096 23.68L246.416 24.06C245.156 24.18 244.516 24.56 244.516 25.54ZM261.521 18.56H263.161V28.5H261.521V24.9L255.301 25.3C254.361 25.36 253.921 24.88 253.921 23.94V18.56H255.561V23.9L261.521 23.5V18.56ZM265.689 25.74C265.689 24.16 266.629 23.08 268.949 22.84L272.909 22.46C272.809 20.64 271.829 19.74 270.109 19.74C268.669 19.74 267.329 20.38 267.329 22.26H265.729C265.729 20.2 267.289 18.36 270.109 18.36C272.889 18.36 274.549 20.2 274.549 22.86V27.1H276.009V28.5H274.249C273.489 28.5 273.069 28.08 273.069 27.34V26.8L273.329 25.76H272.849C272.469 27.28 271.409 28.7 269.009 28.7C266.129 28.7 265.689 26.78 265.689 25.74ZM267.329 25.54C267.329 26.68 268.049 27.3 269.209 27.3C271.469 27.3 272.909 25.74 272.909 23.68L269.229 24.06C267.969 24.18 267.329 24.56 267.329 25.54ZM277.886 28.5V18.56H281.166L283.506 28.04H283.966L286.306 18.56H289.606V28.5H287.966V20L288.246 19.04H287.766L285.386 28.5H282.106L279.726 19.04H279.266L279.526 20V28.5H277.886Z" fill="#181818"/>
<path d="M360.753 30L359.659 28.9205L364.162 24.4176H352.5V22.8551H364.162L359.659 18.3665L360.753 17.2727L367.116 23.6364L360.753 30Z" fill="white"/>
<defs>
<linearGradient id="paint0_linear_234_6659" x1="332.5" y1="18" x2="404.898" y2="36.7295" gradientUnits="userSpaceOnUse">
<stop stop-color="white"/>
<stop stop-color="#5C1EDF"/>
</linearGradient>
</defs>
</svg>
