<svg width="77" height="77" viewBox="0 0 77 77" fill="none" xmlns="http://www.w3.org/2000/svg">
<rect width="77" height="77" rx="38.5" fill="#181818"/>
<path fill-rule="evenodd" clip-rule="evenodd" d="M24.0623 26.875H19.4686C18.1561 26.875 17.8936 27.4821 17.8936 28.1537C17.8936 29.3511 19.4502 35.2902 25.1451 43.1448C28.9409 48.5091 34.2893 51.4167 39.1561 51.4167C42.0764 51.4167 42.4373 50.7708 42.4373 49.6587V45.6042C42.4373 44.3125 42.7129 44.0542 43.6383 44.0542C44.3208 44.0542 45.4889 44.39 48.2136 46.9759C51.3282 50.041 51.8414 51.4167 53.5936 51.4167H58.1873C59.4998 51.4167 60.1561 50.7708 59.7768 49.4959C59.3633 48.2262 57.8763 46.383 55.9023 44.1988C54.8313 42.9537 53.2248 41.6116 52.7391 40.9412C52.0566 40.0797 52.2535 39.6961 52.7391 38.9301C52.7391 38.9301 58.3356 31.1711 58.921 28.5374C59.2124 27.579 58.921 26.875 57.5298 26.875H52.9373C51.7692 26.875 51.2311 27.4821 50.9397 28.1537C50.9397 28.1537 48.6034 33.757 45.2946 37.3969C44.2236 38.4509 43.7367 38.7867 43.1526 38.7867C42.8613 38.7867 42.4386 38.4509 42.4386 37.4938V28.5374C42.4386 27.3878 42.0987 26.875 41.1261 26.875H33.9074C33.1776 26.875 32.7393 27.4085 32.7393 27.9148C32.7393 29.0037 34.393 29.2555 34.5636 32.3194V38.9779C34.5636 40.4375 34.2959 40.7023 33.7105 40.7023C32.1539 40.7023 28.366 35.0732 26.119 28.633C25.678 27.3787 25.2357 26.875 24.0623 26.875Z" fill="#E3E3E3"/>
</svg>
