<svg width="77" height="77" viewBox="0 0 77 77" fill="none" xmlns="http://www.w3.org/2000/svg">
<rect width="77" height="77" rx="38.5" fill="#181818"/>
<path fill-rule="evenodd" clip-rule="evenodd" d="M20.8775 29.6666C21.0413 29.6668 21.2073 29.7074 21.3606 29.7926L38.5 39.3145L55.6394 29.7926C55.7927 29.7074 55.9587 29.6668 56.1225 29.6666C56.1072 27.5713 55.9998 26.4239 55.2463 25.6704C54.3676 24.7917 52.9534 24.7917 50.125 24.7917H26.875C24.0466 24.7917 22.6324 24.7917 21.7537 25.6704C21.0002 26.4239 20.8928 27.5713 20.8775 29.6666ZM56.125 31.8107L39.4713 41.0628C38.8672 41.3983 38.1328 41.3983 37.5287 41.0628L20.875 31.8107V46.2084C20.875 49.0368 20.875 50.4511 21.7537 51.3297C22.6324 52.2084 24.0466 52.2084 26.875 52.2084H50.125C52.9534 52.2084 54.3676 52.2084 55.2463 51.3297C56.125 50.4511 56.125 49.0368 56.125 46.2084V31.8107Z" fill="#E3E3E3"/>
</svg>
