<svg width="77" height="77" viewBox="0 0 77 77" fill="none" xmlns="http://www.w3.org/2000/svg">
<rect width="77" height="77" rx="38.5" fill="#181818"/>
<path d="M51.4341 47.4377C50.9494 48.5557 50.3756 49.5848 49.7108 50.531C48.8046 51.8208 48.0626 52.7136 47.4908 53.2094C46.6044 54.0232 45.6546 54.44 44.6376 54.4637C43.9075 54.4637 43.027 54.2563 42.0021 53.8355C40.9738 53.4168 40.0289 53.2094 39.1648 53.2094C38.2586 53.2094 37.2867 53.4168 36.2472 53.8355C35.206 54.2563 34.3673 54.4755 33.726 54.4973C32.7508 54.5387 31.7787 54.1101 30.8084 53.2094C30.1891 52.6702 29.4145 51.7457 28.4865 50.4361C27.4909 49.0377 26.6723 47.416 26.031 45.5672C25.3443 43.5702 25 41.6364 25 39.7643C25 37.6197 25.4642 35.7701 26.3939 34.2201C27.1246 32.9751 28.0967 31.993 29.3134 31.2721C30.53 30.5511 31.8446 30.1837 33.2603 30.1602C34.0349 30.1602 35.0507 30.3994 36.3131 30.8695C37.5718 31.3412 38.3801 31.5804 38.7345 31.5804C38.9994 31.5804 39.8973 31.3007 41.4194 30.7431C42.8589 30.226 44.0737 30.0119 45.069 30.0962C47.7658 30.3135 49.7919 31.3748 51.1393 33.2868C48.7274 34.7458 47.5343 36.7892 47.558 39.4105C47.5798 41.4523 48.3218 43.1514 49.78 44.5005C50.4409 45.1267 51.1789 45.6106 52 45.9543C51.8219 46.4698 51.634 46.9637 51.4341 47.4377ZM45.249 23.1402C45.249 24.7405 44.6633 26.2348 43.496 27.6179C42.0872 29.2621 40.3832 30.2122 38.5354 30.0622C38.5119 29.8702 38.4982 29.6682 38.4982 29.4558C38.4982 27.9195 39.1682 26.2753 40.3579 24.9309C40.9519 24.2503 41.7073 23.6843 42.6234 23.2328C43.5375 22.7881 44.4022 22.5421 45.2154 22.5C45.2391 22.7139 45.249 22.9279 45.249 23.1402Z" fill="white"/>
</svg>
